<?xml version="1.0" encoding="UTF-8"?>
<svg id="Camada_2" data-name="Camada 2" xmlns="http://www.w3.org/2000/svg" viewBox="0 0 285.07 327.38">
  <defs>
    <style>
      .cls-1 {
        fill: #e8d7ca;
      }

      .cls-1, .cls-2 {
        stroke-width: 0px;
      }

      .cls-2 {
        fill: #02503e;
      }
    </style>
  </defs>
  <g id="Camada_1-2" data-name="Camada 1">
    <g>
      <path class="cls-1" d="M213.05,152.86c32.74-6.55,72.02-31.73,72.02-73.53,0-24.68-12.09-49.61-30.72-61.69C234.2,5.04,191.89,0,153.61,0H.5v18.64c26.64,1.88,38.72,4.87,42.31,23.76h-.43,35.57c-.04-8.86-.97-12.97,4.12-16.21,4.03-2.52,45.85-4.03,57.94-4.03,27.7,0,69.34,22.41,69.34,66.23,0,24.23-20.39,41.43-38.75,50.5v35.16c27.09,9.77,39.42,31.44,39.42,65.94,0,46.84-68.43,65.23-96.13,65.73-23.48.43-32.12-7.78-35.94-33.36h-35.32c-1.11,30.41-8.07,32.8-42.63,36.39v18.63h141.02c37.27,0,70.01-7.05,95.69-21.15,28.71-16.12,48.35-39.54,48.35-70.77,0-47.85-19.14-73.03-72.02-82.6Z"/>
      <path class="cls-2" d="M77.83,239.74l.16-57.51c0-4.53,3.67-8.21,8.21-8.21h42.74c1.11,0,15.75.02,16.83.04v-35.22c-.42,0-14.39.02-14.82.02h-44.75c-4.53,0-8.21-3.67-8.21-8.21v-55.73h-35.18l-.16,164.81"/>
    </g>
  </g>
</svg>