<?xml version="1.0" encoding="UTF-8"?>
<svg id="Camada_2" data-name="Camada 2" xmlns="http://www.w3.org/2000/svg" viewBox="0 0 47.43 47.43">
  <defs>
    <style>
      .cls-1 {
        fill: #222221;
      }

      .cls-1, .cls-2 {
        stroke-width: 0px;
      }

      .cls-2 {
        fill: #fff;
      }
    </style>
  </defs>
  <g id="Capa_1" data-name="Capa 1">
    <g>
      <rect class="cls-1" width="47.43" height="47.43" rx="8.47" ry="8.47"/>
      <g>
        <path class="cls-2" d="M26.68,23.1h-9.58v2.74h6.47c-.76,3.34-3.12,5.39-6.29,5.39-4.15,0-7.52-3.37-7.52-7.52s3.36-7.52,7.52-7.52c1.97,0,3.77.76,5.11,2.01l2.12-1.83c-1.86-1.83-4.41-2.96-7.23-2.96-5.69,0-10.3,4.61-10.3,10.3s4.61,10.3,10.3,10.3,9.41-4.17,9.41-9.86l-.02-1.06Z"/>
        <polygon class="cls-2" points="40.45 23.21 36.49 23.21 36.49 19.25 33.97 19.25 33.97 23.21 30.01 23.21 30.01 25.73 33.97 25.73 33.97 29.69 36.49 29.69 36.49 25.73 40.45 25.73 40.45 23.21"/>
      </g>
    </g>
  </g>
</svg>