<?xml version="1.0" encoding="UTF-8"?>
<svg id="Camada_2" data-name="Camada 2" xmlns="http://www.w3.org/2000/svg" viewBox="0 0 47.43 47.43">
  <defs>
    <style>
      .cls-1 {
        fill: #fff;
        fill-rule: evenodd;
      }

      .cls-1, .cls-2 {
        stroke-width: 0px;
      }

      .cls-2 {
        fill: #222221;
      }
    </style>
  </defs>
  <g id="Capa_1" data-name="Capa 1">
    <g>
      <rect class="cls-2" width="47.43" height="47.43" rx="8.47" ry="8.47"/>
      <g>
        <path class="cls-1" d="M36.71,23.06c-.17-6.85-5.82-12.35-12.76-12.35s-12.46,5.37-12.76,12.12c0,.19-.01.37-.01.56,0,2.4.67,4.63,1.83,6.55l-2.3,6.8,7.07-2.25c1.83,1,3.93,1.58,6.17,1.58,7.06,0,12.77-5.67,12.77-12.68,0-.11,0-.22,0-.32ZM23.95,34.03c-2.18,0-4.21-.65-5.91-1.76l-4.13,1.32,1.34-3.96c-1.29-1.76-2.04-3.92-2.04-6.25,0-.35.02-.69.05-1.03.53-5.39,5.12-9.62,10.68-9.62s10.27,4.33,10.7,9.82c.02.28.04.55.04.83,0,5.88-4.82,10.65-10.74,10.65Z"/>
        <path class="cls-1" d="M29.8,25.94c-.32-.16-1.85-.91-2.14-1.01-.29-.11-.5-.16-.71.16-.21.31-.81,1.01-.99,1.21-.19.21-.36.23-.68.08-.31-.16-1.32-.48-2.52-1.54-.93-.82-1.56-1.84-1.74-2.15-.18-.31-.02-.48.14-.63.14-.14.31-.36.47-.54.04-.05.08-.1.11-.15.07-.11.13-.22.2-.37.11-.21.05-.39-.02-.54-.08-.16-.71-1.69-.97-2.31-.26-.62-.52-.51-.71-.51s-.39-.03-.6-.03-.55.08-.84.39c-.29.31-1.09,1.06-1.09,2.59,0,.36.07.72.16,1.06.32,1.09,1,2,1.12,2.15.16.2,2.16,3.44,5.34,4.69,3.19,1.24,3.19.82,3.76.77.57-.05,1.85-.75,2.11-1.48.26-.72.26-1.35.19-1.48-.08-.13-.29-.2-.6-.36Z"/>
      </g>
    </g>
  </g>
</svg>