<?xml version="1.0" encoding="UTF-8"?>
<svg id="Camada_2" data-name="Camada 2" xmlns="http://www.w3.org/2000/svg" viewBox="0 0 932.07 653.61">
  <defs>
    <style>
      .cls-1 {
        fill: #e8d7ca;
      }

      .cls-1, .cls-2 {
        stroke-width: 0px;
      }

      .cls-2 {
        fill: #02503e;
      }
    </style>
  </defs>
  <g id="Camada_1-2" data-name="Camada 1">
    <g>
      <g>
        <path class="cls-1" d="M551.31,184.85c39.59-7.92,87.1-38.37,87.1-88.92,0-29.84-14.62-59.99-37.15-74.61C576.89,6.09,525.73,0,479.44,0h-185.16v22.54c32.21,2.27,46.82,5.89,51.16,28.74h-.52,43.02c-.04-10.71-1.18-15.68,4.98-19.6,4.87-3.05,55.45-4.87,70.07-4.87,33.5,0,83.85,27.1,83.85,80.09,0,29.3-24.66,50.1-46.86,61.07v42.52c32.76,11.81,47.67,38.02,47.67,79.74,0,56.64-82.75,78.88-116.25,79.49-28.39.53-38.84-9.41-43.47-40.35h-42.72c-1.34,36.77-9.76,39.66-51.55,44v22.54h170.54c45.07,0,84.66-8.53,115.72-25.58,34.72-19.49,58.47-47.82,58.47-85.58,0-57.86-23.14-88.31-87.1-99.89Z"/>
        <path class="cls-2" d="M387.79,289.92l.19-69.54c0-5.48,4.44-9.92,9.92-9.92h51.69c1.34,0,19.04.03,20.36.05v-42.59c-.51,0-17.4.02-17.92.02h-54.12c-5.48,0-9.92-4.44-9.92-9.92v-67.39h-42.54l-.19,199.3"/>
      </g>
      <g>
        <path class="cls-1" d="M51.71,515.61c12.72,2.3,21.68,8.36,21.68,19.86,0,7.51-4.72,14.53-11.63,18.41-6.18,3.39-14.05,5.09-23.01,5.09H4.84v-4.48c9.33-.97,10.29-1.58,10.29-11.75v-46.14c0-10.17-1.57-11.26-10.17-11.87v-4.48h36.82c9.21,0,15.02,1.21,19.86,4.24,4.48,2.91,7.39,7.51,7.39,13.44,0,10.05-9.45,16.11-17.32,17.68ZM36.33,514.03c11.5,0,15.74-4.97,15.74-13.93,0-10.54-6.9-14.53-13.56-14.53-2.91,0-4.72.36-5.69.97-1.33.85-1.21,1.94-1.21,4.48v23.01h4.72ZM31.61,542.49c0,8.72,4,11.38,10.54,11.26,6.66-.12,13.2-5.93,13.2-17.2s-5.93-17.32-19.5-17.32h-4.24v23.25Z"/>
        <path class="cls-1" d="M158.66,559.69c-.73,0-2.18,0-3.63-.12-15.38-.73-19.86-4-23.5-9.08-4.84-6.66-8.36-14.05-12.47-21.31-1.82-3.27-3.51-4-7.39-4l-2.42-.12v17.68c0,9.81,1.21,10.66,10.29,11.75v4.48h-37.06v-4.48c9.2-.97,10.29-1.94,10.29-11.75v-46.38c0-9.57-1.21-10.9-10.29-11.63v-4.48h35.12c10.78,0,16.96,1.21,21.92,4.6,4.84,3.27,8.11,8.6,8.11,16.11,0,10.78-7.15,16.47-15.14,19.62,1.82,3.63,6.54,11.51,10.17,17.08,4.24,6.66,6.9,9.93,9.21,12.6,2.79,3.15,4.12,4.12,7.63,5.33l-.85,4.12ZM112.51,520.09c5.21,0,9.21-.85,11.87-3.15,4-3.39,5.69-7.99,5.69-14.17,0-12.84-7.39-17.44-14.17-17.44-3.27,0-4.84.48-5.57,1.21-.85.73-1.09,2.18-1.09,4.6v28.95h3.27Z"/>
        <path class="cls-1" d="M242.35,484.72c-7.75.73-9.81,3.03-10.29,7.39-.36,3.63-.61,7.75-.61,16.23v15.87c0,10.42-1.7,20.95-8.6,28.22-5.57,5.81-14.17,8.36-22.77,8.36-7.99,0-15.99-1.7-21.68-6.3-7.02-5.33-10.42-12.72-10.42-26.28v-30.64c0-11.14-1.09-11.99-10.29-12.84v-4.48h37.42v4.48c-9.08.85-10.17,1.7-10.17,12.84v32.21c0,13.56,6.66,22.53,19.62,22.53,14.41,0,20.71-10.66,20.71-28.82v-15.14c0-8.36-.36-12.72-.61-16.35-.48-5.57-3.88-6.78-12.35-7.27v-4.48h30.04v4.48Z"/>
        <path class="cls-1" d="M332.82,484.72c-7.39.97-9.69,2.54-10.05,7.99-.36,4.72-.73,8.84-.73,19.38v48.2h-6.78l-50.5-60.55v27.37c0,10.54.24,15.26.61,18.77.48,5.33,3.03,8.11,11.99,8.6v4.48h-30.04v-4.48c6.9-.61,9.93-2.42,10.66-8.11.48-4.36.73-8.72.73-19.26v-28.7c0-4-.24-6.66-2.54-9.81-2.18-3.03-5.09-3.39-10.17-3.88v-4.48h23.62l46.14,53.65v-21.8c0-10.54-.12-14.53-.48-19.01-.36-5.21-2.3-7.75-12.35-8.36v-4.48h29.91v4.48Z"/>
        <path class="cls-1" d="M383.32,478.55c22.41,0,40.69,16.35,40.69,40.21,0,25.8-18.41,42.03-41.3,42.03-24.22,0-41.78-17.68-41.78-41.06,0-20.71,14.78-41.18,42.39-41.18ZM381.5,483.88c-12.35,0-21.44,12.11-21.44,33.55s8.11,38.03,24.46,38.03c11.51,0,20.47-11.14,20.47-33.31,0-23.98-9.45-38.27-23.5-38.27Z"/>
        <path class="cls-1" d="M527.08,501.19c-1.33-5.57-4-10.17-5.21-11.87-2.18-2.54-3.15-3.51-10.29-3.51h-7.75v56.92c0,10.17,1.21,10.9,11.99,11.75v4.48h-40.21v-4.48c10.29-.85,11.38-1.58,11.38-11.75v-56.92h-7.39c-6.78,0-8.72,1.09-11.02,4-1.7,2.3-3.39,6.66-4.97,11.51h-4.6c.85-8.84,1.7-18.29,1.94-24.1h3.63c1.82,2.79,3.27,3.03,6.9,3.03h48.44c3.27,0,4.97-.73,7.02-3.03h3.51c.12,5.09.61,15.74,1.21,23.62l-4.6.36Z"/>
        <path class="cls-1" d="M582.79,478.55c22.41,0,40.69,16.35,40.69,40.21,0,25.8-18.41,42.03-41.3,42.03-24.22,0-41.78-17.68-41.78-41.06,0-20.71,14.78-41.18,42.39-41.18ZM580.97,483.88c-12.35,0-21.44,12.11-21.44,33.55s8.11,38.03,24.46,38.03c11.51,0,20.47-11.14,20.47-33.31,0-23.98-9.45-38.27-23.5-38.27Z"/>
        <path class="cls-1" d="M710.2,559.69c-.73,0-2.18,0-3.63-.12-15.38-.73-19.86-4-23.5-9.08-4.84-6.66-8.36-14.05-12.47-21.31-1.82-3.27-3.51-4-7.39-4l-2.42-.12v17.68c0,9.81,1.21,10.66,10.29,11.75v4.48h-37.06v-4.48c9.2-.97,10.29-1.94,10.29-11.75v-46.38c0-9.57-1.21-10.9-10.29-11.63v-4.48h35.12c10.78,0,16.96,1.21,21.92,4.6,4.84,3.27,8.11,8.6,8.11,16.11,0,10.78-7.15,16.47-15.14,19.62,1.82,3.63,6.54,11.51,10.17,17.08,4.24,6.66,6.9,9.93,9.21,12.6,2.79,3.15,4.12,4.12,7.63,5.33l-.85,4.12ZM664.05,520.09c5.21,0,9.2-.85,11.87-3.15,4-3.39,5.69-7.99,5.69-14.17,0-12.84-7.39-17.44-14.17-17.44-3.27,0-4.84.48-5.57,1.21-.85.73-1.09,2.18-1.09,4.6v28.95h3.27Z"/>
        <path class="cls-1" d="M791.46,559.69c-.73,0-2.18,0-3.63-.12-15.38-.73-19.86-4-23.5-9.08-4.84-6.66-8.36-14.05-12.47-21.31-1.82-3.27-3.51-4-7.39-4l-2.42-.12v17.68c0,9.81,1.21,10.66,10.29,11.75v4.48h-37.06v-4.48c9.2-.97,10.29-1.94,10.29-11.75v-46.38c0-9.57-1.21-10.9-10.29-11.63v-4.48h35.12c10.78,0,16.96,1.21,21.92,4.6,4.84,3.27,8.11,8.6,8.11,16.11,0,10.78-7.15,16.47-15.14,19.62,1.82,3.63,6.54,11.51,10.17,17.08,4.24,6.66,6.9,9.93,9.21,12.6,2.79,3.15,4.12,4.12,7.63,5.33l-.85,4.12ZM745.32,520.09c5.21,0,9.2-.85,11.87-3.15,4-3.39,5.69-7.99,5.69-14.17,0-12.84-7.39-17.44-14.17-17.44-3.27,0-4.84.48-5.57,1.21-.85.73-1.09,2.18-1.09,4.6v28.95h3.27Z"/>
        <path class="cls-1" d="M863.04,538.37c-.61,3.27-4,17.2-5.09,20.59h-62.86v-4.36c11.02-1.09,11.75-1.7,11.75-11.87v-46.26c0-10.29-1.45-11.02-9.69-11.75v-4.48h39.36c12.72,0,16.96-.12,18.65-.24.12,2.18.73,12.11,1.21,19.62l-4.72.61c-1.09-4.12-3.15-9.08-5.21-11.26-2.18-2.42-3.75-3.15-9.93-3.15h-7.87c-4.6,0-5.09.24-5.09,4.36v25.31h11.87c6.78,0,7.99-1.82,9.81-10.42h4.72v27.01h-4.72c-1.94-8.96-2.91-10.42-9.93-10.42h-11.75v20.83c0,8.36.24,10.9,7.75,11.02h8.6c6.78,0,8.6-.85,11.26-4.12,3.03-3.51,5.45-7.99,7.39-12.11l4.48,1.09Z"/>
        <path class="cls-1" d="M917.3,500.23c-2.42-7.75-5.81-16.59-16.96-16.59-7.02,0-11.63,4.96-11.63,11.75s4.48,10.66,15.14,15.99c12.96,6.42,21.19,12.72,21.19,24.71,0,14.29-11.87,24.71-29.19,24.71-7.75,0-14.65-2.06-20.35-3.75-.73-2.79-2.79-15.38-3.63-21.07l4.72-1.09c2.42,7.63,9.2,20.83,21.07,20.83,7.39,0,11.87-4.6,11.87-12.35,0-7.03-4.36-11.14-14.53-16.59-12.6-6.78-20.83-12.84-20.83-25.43s9.93-22.77,28.1-22.77c8.36,0,14.65,1.82,17.32,2.18.48,4.48,1.33,10.78,2.3,18.41l-4.6,1.09Z"/>
        <path class="cls-1" d="M268.78,631.63v-2.24c3.82-.54,3.82-1.21,2.97-3.82-.61-1.82-1.57-4.54-2.48-6.96h-11.81c-.67,1.88-1.51,4.18-2.12,6.06-1.27,3.81.18,4.3,4.97,4.72v2.24h-14.96v-2.24c3.82-.48,4.78-1.03,6.84-6.12l12.6-31.31,2.91-.55c3.88,10.54,7.99,21.32,11.93,31.43,2.24,5.63,2.79,6.06,6.72,6.54v2.24h-17.56ZM263.45,602.68c-1.76,4.36-3.45,8.42-4.97,12.84h9.63l-4.66-12.84Z"/>
        <path class="cls-1" d="M326.61,631.99c-.36,0-1.09,0-1.82-.06-7.69-.36-9.93-2-11.75-4.54-2.42-3.33-4.18-7.03-6.24-10.66-.91-1.64-1.76-2-3.69-2l-1.21-.06v8.84c0,4.9.61,5.33,5.15,5.87v2.24h-18.53v-2.24c4.6-.48,5.15-.97,5.15-5.87v-23.2c0-4.79-.61-5.45-5.15-5.81v-2.24h17.56c5.39,0,8.48.61,10.96,2.3,2.42,1.63,4.06,4.3,4.06,8.05,0,5.39-3.57,8.24-7.57,9.81.91,1.82,3.27,5.75,5.09,8.54,2.12,3.33,3.45,4.97,4.6,6.3,1.39,1.58,2.06,2.06,3.82,2.67l-.42,2.06ZM303.54,612.19c2.6,0,4.6-.42,5.94-1.57,2-1.7,2.85-4,2.85-7.09,0-6.42-3.69-8.72-7.09-8.72-1.63,0-2.42.24-2.79.61-.42.36-.54,1.09-.54,2.3v14.47h1.63Z"/>
        <path class="cls-1" d="M350.11,591.42c11.2,0,20.35,8.18,20.35,20.11,0,12.9-9.21,21.02-20.65,21.02-12.11,0-20.89-8.84-20.89-20.53,0-10.36,7.39-20.59,21.2-20.59ZM349.2,594.08c-6.18,0-10.72,6.06-10.72,16.78s4.06,19.02,12.23,19.02c5.75,0,10.24-5.57,10.24-16.66,0-11.99-4.72-19.14-11.75-19.14ZM353.74,627.75c7.75,5.94,13.99,10.17,18.47,11.87l-.54,1.82c-2.73.24-7.27.12-9.63-.54-5.27-1.51-11.63-6.42-16.71-10.48l8.42-2.67Z"/>
        <path class="cls-1" d="M417.45,594.51c-3.88.36-4.91,1.51-5.15,3.69-.18,1.82-.3,3.88-.3,8.12v7.93c0,5.21-.85,10.48-4.3,14.11-2.79,2.91-7.09,4.18-11.39,4.18-4,0-7.99-.85-10.84-3.15-3.51-2.67-5.21-6.36-5.21-13.14v-15.32c0-5.57-.54-6-5.15-6.42v-2.24h18.71v2.24c-4.54.42-5.09.85-5.09,6.42v16.11c0,6.78,3.33,11.26,9.81,11.26,7.21,0,10.36-5.33,10.36-14.41v-7.57c0-4.18-.18-6.36-.3-8.18-.24-2.79-1.94-3.39-6.18-3.63v-2.24h15.02v2.24Z"/>
        <path class="cls-1" d="M420.47,631.63v-2.24c4.6-.42,5.15-.79,5.15-5.87v-23.07c0-5.09-.61-5.57-5.15-5.94v-2.24h18.71v2.24c-4.54.42-5.15.85-5.15,5.94v23.07c0,5.03.54,5.39,5.15,5.87v2.24h-18.71Z"/>
        <path class="cls-1" d="M477.82,602.74c-.67-2.79-2-5.09-2.6-5.94-1.09-1.27-1.58-1.76-5.15-1.76h-3.88v28.46c0,5.09.61,5.45,6,5.87v2.24h-20.11v-2.24c5.15-.42,5.69-.79,5.69-5.87v-28.46h-3.69c-3.39,0-4.36.54-5.51,2-.85,1.15-1.7,3.33-2.48,5.75h-2.3c.42-4.42.85-9.14.97-12.05h1.82c.91,1.39,1.64,1.51,3.45,1.51h24.22c1.64,0,2.48-.36,3.51-1.51h1.76c.06,2.54.3,7.87.61,11.81l-2.3.18Z"/>
        <path class="cls-1" d="M517.6,621.34c-.3,1.64-2,8.6-2.54,10.3h-31.43v-2.18c5.51-.54,5.88-.85,5.88-5.93v-23.13c0-5.15-.73-5.51-4.84-5.88v-2.24h19.68c6.36,0,8.48-.06,9.33-.12.06,1.09.36,6.06.61,9.81l-2.36.3c-.54-2.06-1.58-4.54-2.6-5.63-1.09-1.21-1.88-1.57-4.97-1.57h-3.94c-2.3,0-2.54.12-2.54,2.18v12.66h5.94c3.39,0,4-.91,4.91-5.21h2.36v13.51h-2.36c-.97-4.48-1.45-5.21-4.97-5.21h-5.88v10.42c0,4.18.12,5.45,3.88,5.51h4.3c3.39,0,4.3-.42,5.63-2.06,1.51-1.76,2.72-4,3.69-6.06l2.24.55Z"/>
        <path class="cls-1" d="M553.81,602.74c-.67-2.79-2-5.09-2.6-5.94-1.09-1.27-1.58-1.76-5.15-1.76h-3.88v28.46c0,5.09.61,5.45,6,5.87v2.24h-20.11v-2.24c5.15-.42,5.69-.79,5.69-5.87v-28.46h-3.69c-3.39,0-4.36.54-5.51,2-.85,1.15-1.7,3.33-2.48,5.75h-2.3c.42-4.42.85-9.14.97-12.05h1.82c.91,1.39,1.64,1.51,3.45,1.51h24.22c1.64,0,2.48-.36,3.51-1.51h1.76c.06,2.54.3,7.87.61,11.81l-2.3.18Z"/>
        <path class="cls-1" d="M602.8,594.51c-3.88.36-4.91,1.51-5.15,3.69-.18,1.82-.3,3.88-.3,8.12v7.93c0,5.21-.85,10.48-4.3,14.11-2.79,2.91-7.09,4.18-11.39,4.18-4,0-7.99-.85-10.84-3.15-3.51-2.67-5.21-6.36-5.21-13.14v-15.32c0-5.57-.54-6-5.15-6.42v-2.24h18.71v2.24c-4.54.42-5.09.85-5.09,6.42v16.11c0,6.78,3.33,11.26,9.81,11.26,7.21,0,10.36-5.33,10.36-14.41v-7.57c0-4.18-.18-6.36-.3-8.18-.24-2.79-1.94-3.39-6.18-3.63v-2.24h15.02v2.24Z"/>
        <path class="cls-1" d="M643.92,631.99c-.36,0-1.09,0-1.82-.06-7.69-.36-9.93-2-11.75-4.54-2.42-3.33-4.18-7.03-6.24-10.66-.91-1.64-1.76-2-3.69-2l-1.21-.06v8.84c0,4.9.61,5.33,5.15,5.87v2.24h-18.53v-2.24c4.6-.48,5.15-.97,5.15-5.87v-23.2c0-4.79-.61-5.45-5.15-5.81v-2.24h17.56c5.39,0,8.48.61,10.96,2.3,2.42,1.63,4.06,4.3,4.06,8.05,0,5.39-3.57,8.24-7.57,9.81.91,1.82,3.27,5.75,5.09,8.54,2.12,3.33,3.45,4.97,4.6,6.3,1.39,1.58,2.06,2.06,3.82,2.67l-.42,2.06ZM620.85,612.19c2.6,0,4.6-.42,5.94-1.57,2-1.7,2.85-4,2.85-7.09,0-6.42-3.69-8.72-7.09-8.72-1.63,0-2.42.24-2.79.61-.42.36-.54,1.09-.54,2.3v14.47h1.63Z"/>
        <path class="cls-1" d="M669.11,631.63v-2.24c3.82-.54,3.82-1.21,2.97-3.82-.61-1.82-1.57-4.54-2.48-6.96h-11.81c-.67,1.88-1.51,4.18-2.12,6.06-1.27,3.81.18,4.3,4.97,4.72v2.24h-14.96v-2.24c3.82-.48,4.78-1.03,6.84-6.12l12.6-31.31,2.91-.55c3.88,10.54,7.99,21.32,11.93,31.43,2.24,5.63,2.79,6.06,6.72,6.54v2.24h-17.56ZM663.78,602.68c-1.76,4.36-3.45,8.42-4.97,12.84h9.63l-4.66-12.84Z"/>
      </g>
      <text/>
    </g>
  </g>
</svg>